<svg height="512" viewBox="0 0 64 64" width="512" xmlns="http://www.w3.org/2000/svg"><g id="Flat"><path d="m51 13v6h-38v-6h6.36a12.987 12.987 0 0 1 25.28 0z" fill="#d1303d"/><path d="m37 5c0 6.63-6.94 12-15.5 12a18.808 18.808 0 0 1 -8.5-1.96v-2.04h6.36a13 13 0 0 1 17.58-9.03 8.766 8.766 0 0 1 .06 1.03z" fill="#dd4558"/><g fill="#ccc"><path d="m26 16c-1.683 0-3-1.757-3-4s1.317-4 3-4 3 1.757 3 4-1.317 4-3 4zm0-6c-.408 0-1 .779-1 2s.592 2 1 2 1-.779 1-2-.592-2-1-2z"/><path d="m25 14h2v5h-2z"/><path d="m36 16h-2a1 1 0 0 1 -.447-.105l-2-1a1 1 0 0 1 -.553-.895v-6h2v5.382l1.236.618h1.528l1.236-.618v-5.382h2v6a1 1 0 0 1 -.553.895l-2 1a1 1 0 0 1 -.447.105z"/><path d="m34 8h2v11h-2z"/></g><path d="m8 29h48v32h-48z" fill="#e2e2e2"/><path d="m54 29v10.912a19.088 19.088 0 0 1 -19.088 19.088h-26.912v-30z" fill="#f2f3f4"/><path d="m5 19h54v6h-54z" fill="#e5842c"/><path d="m52.65 19a5.769 5.769 0 0 1 -1.41 2.24 5.944 5.944 0 0 1 -4.24 1.76h-42v-4z" fill="#f29344"/><path d="m11 29v3a3 3 0 0 1 -6 0v-3z" fill="#d1303d"/><path d="m11 31v1a3 3 0 0 1 -6 0v-1a3 3 0 0 0 6 0z" fill="#ba2a3b"/><path d="m11 29h6a0 0 0 0 1 0 0v3a3 3 0 0 1 -3 3 3 3 0 0 1 -3-3v-3a0 0 0 0 1 0 0z" fill="#f19332"/><path d="m17 29h6a0 0 0 0 1 0 0v3a3 3 0 0 1 -3 3 3 3 0 0 1 -3-3v-3a0 0 0 0 1 0 0z" fill="#d1303d"/><path d="m23 29h6a0 0 0 0 1 0 0v3a3 3 0 0 1 -3 3 3 3 0 0 1 -3-3v-3a0 0 0 0 1 0 0z" fill="#f19332"/><path d="m29 29h6a0 0 0 0 1 0 0v3a3 3 0 0 1 -3 3 3 3 0 0 1 -3-3v-3a0 0 0 0 1 0 0z" fill="#d1303d"/><path d="m35 29h6a0 0 0 0 1 0 0v3a3 3 0 0 1 -3 3 3 3 0 0 1 -3-3v-3a0 0 0 0 1 0 0z" fill="#f19332"/><path d="m41 29h6a0 0 0 0 1 0 0v3a3 3 0 0 1 -3 3 3 3 0 0 1 -3-3v-3a0 0 0 0 1 0 0z" fill="#d1303d"/><path d="m47 29h6a0 0 0 0 1 0 0v3a3 3 0 0 1 -3 3 3 3 0 0 1 -3-3v-3a0 0 0 0 1 0 0z" fill="#f19332"/><path d="m53 29h6a0 0 0 0 1 0 0v3a3 3 0 0 1 -3 3 3 3 0 0 1 -3-3v-3a0 0 0 0 1 0 0z" fill="#d1303d"/><path d="m59.5 54h-1.777a2 2 0 1 0 -3.446 0h-1.777a1.5 1.5 0 0 0 0 3h7a1.5 1.5 0 0 0 0-3z" fill="#009d54"/><path d="m51 57h10v4h-10z" fill="#a3384a"/><path d="m24 45v16h-12v-16a5.99 5.99 0 0 1 5-5.91 5.47 5.47 0 0 1 1-.09 6.009 6.009 0 0 1 6 6z" fill="#33a4db"/><path d="m22 45v16h-10v-16a5.99 5.99 0 0 1 5-5.91 5.832 5.832 0 0 1 3.24 1.67 5.944 5.944 0 0 1 1.76 4.24z" fill="#39b5e5"/><path d="m17 39h2v7h-2z" fill="#ccc"/><path d="m12 45h12v2h-12z" fill="#ccc"/><path d="m28 39h24v16h-24z" fill="#33a4db"/><path d="m51 39v8.294a7.706 7.706 0 0 1 -7.706 7.706h-15.294v-16z" fill="#39b5e5"/><path d="m5 25h54v4h-54z" fill="#e2e2e2"/><path d="m39 50h2v5h-2z" fill="#ccc"/><path d="m31 48h2v7h-2z" fill="#ccc"/><path d="m47 48h2v7h-2z" fill="#ccc"/><path d="m39 39h2v4h-2z" fill="#ccc"/><path d="m13 55.5a1.5 1.5 0 0 1 -1.5 1.5h-7a1.5 1.5 0 0 1 0-3h1.78a1.974 1.974 0 0 1 1.22-2.93 1.679 1.679 0 0 1 .5-.07 1.984 1.984 0 0 1 1.72 3h1.78a1.5 1.5 0 0 1 1.5 1.5z" fill="#009d54"/><path d="m12 55.5a1.5 1.5 0 0 1 -1.5 1.5h-6a1.5 1.5 0 0 1 0-3h1.78a1.974 1.974 0 0 1 1.22-2.93 1.974 1.974 0 0 1 1.22 2.93h1.78a1.5 1.5 0 0 1 1.5 1.5z" fill="#0cad5c"/><path d="m60 55.5a1.5 1.5 0 0 1 -1.5 1.5h-6a1.5 1.5 0 0 1 0-3h1.78a1.974 1.974 0 0 1 1.22-2.93 1.974 1.974 0 0 1 1.22 2.93h1.78a1.5 1.5 0 0 1 1.5 1.5z" fill="#0cad5c"/><path d="m3 57h10v4h-10z" fill="#a3384a"/><path d="m9.005 59h-6.005v-2h8v.005a2 2 0 0 1 -1.995 1.995z" fill="#b54865"/><path d="m57.005 59h-6.005v-2h8v.005a2 2 0 0 1 -1.995 1.995z" fill="#b54865"/><path d="m35 49h10v2h-10z" fill="#8c6239"/><path d="m40 42a2 2 0 0 1 2 2v1a0 0 0 0 1 0 0h-4a0 0 0 0 1 0 0v-1a2 2 0 0 1 2-2z" fill="#f19332"/><path d="m23 31v1a3 3 0 0 1 -6 0v-1a3 3 0 0 0 6 0z" fill="#ba2a3b"/><path d="m35 31v1a3 3 0 0 1 -6 0v-1a3 3 0 0 0 6 0z" fill="#ba2a3b"/><path d="m47 31v1a3 3 0 0 1 -6 0v-1a3 3 0 0 0 6 0z" fill="#ba2a3b"/><path d="m59 31v1a3 3 0 0 1 -6 0v-1a3 3 0 0 0 6 0z" fill="#ba2a3b"/><path d="m17 31v1a3 3 0 0 1 -6 0v-1a3 3 0 0 0 6 0z" fill="#e28430"/><path d="m29 31v1a3 3 0 0 1 -6 0v-1a3 3 0 0 0 6 0z" fill="#e28430"/><path d="m41 31v1a3 3 0 0 1 -6 0v-1a3 3 0 0 0 6 0z" fill="#e28430"/><path d="m53 31v1a3 3 0 0 1 -6 0v-1a3 3 0 0 0 6 0z" fill="#e28430"/><path d="m41 19a2.015 2.015 0 0 1 -2 2h-8a2.006 2.006 0 0 1 -2-2z" fill="#f9aa6e"/><path d="m49 19a2.015 2.015 0 0 1 -2 2h-2a2.006 2.006 0 0 1 -2-2z" fill="#f9aa6e"/></g></svg>